<svg width="20" height="20" viewBox="0 0 20 20" fill="none" xmlns="http://www.w3.org/2000/svg">
<path d="M6 8V6C6 3.239 7.239 1 10 1C12.761 1 14 3.239 14 6V8M1.5 15.8V11.2C1.5 10.08 1.5 9.52 1.718 9.093C1.90957 8.71632 2.21554 8.41 2.592 8.218C3.02 8.001 3.58 8.001 4.7 8.001H15.3C16.42 8.001 16.98 8.001 17.408 8.218C17.7843 8.40974 18.0903 8.71569 18.282 9.092C18.5 9.52 18.5 10.08 18.5 11.2V15.8C18.5 16.92 18.5 17.48 18.282 17.908C18.0903 18.2843 17.7843 18.5903 17.408 18.782C16.98 19 16.42 19 15.3 19H4.7C3.58 19 3.02 19 2.592 18.782C2.21569 18.5903 1.90974 18.2843 1.718 17.908C1.5 17.481 1.5 16.921 1.5 15.8Z" stroke="white" stroke-width="1.5" stroke-linecap="round" stroke-linejoin="round"/>
</svg>
